<?xml version="1.0" encoding="UTF-8"?>
<!DOCTYPE svg PUBLIC "-//W3C//DTD SVG 1.1//EN" "http://www.w3.org/Graphics/SVG/1.1/DTD/svg11.dtd">
<!-- Creator: CorelDRAW -->
<svg xmlns="http://www.w3.org/2000/svg" xml:space="preserve" width="2048px" height="2048px" style="shape-rendering:geometricPrecision; text-rendering:geometricPrecision; image-rendering:optimizeQuality; fill-rule:evenodd; clip-rule:evenodd"
viewBox="0 0 2048 2048"
 xmlns:xlink="http://www.w3.org/1999/xlink">
 <defs>
  <style type="text/css">
   <![CDATA[
    .fil2 {fill:none}
    .fil1 {fill:#7E57C2}
    .fil0 {fill:#9575CD}
    .fil6 {fill:#E65100}
    .fil5 {fill:#F57C00}
    .fil4 {fill:#FB8C00}
    .fil3 {fill:#FB8C00;fill-rule:nonzero}
   ]]>
  </style>
   <clipPath id="id0">
    <path d="M1024 -0.0011811c565.539,0 1024,458.462 1024,1024 0,565.539 -458.462,1024 -1024,1024 -565.539,0 -1024,-458.462 -1024,-1024 0,-565.539 458.462,-1024 1024,-1024z"/>
   </clipPath>
 </defs>
 <g id="Layer_x0020_1">
  <metadata id="CorelCorpID_0Corel-Layer"/>
  <path class="fil0" d="M1024 -0.0011811c565.539,0 1024,458.462 1024,1024 0,565.539 -458.462,1024 -1024,1024 -565.539,0 -1024,-458.462 -1024,-1024 0,-565.539 458.462,-1024 1024,-1024z"/>
  <g style="clip-path:url(#id0)">
   <g id="_466492256">
    <g>
     <polygon id="_4620434001" class="fil1" points="1252.8,568.412 2388.68,1704.29 2393.39,1709.85 2397.96,1715.52 2402.4,1721.3 2406.71,1727.19 2410.88,1733.18 2414.9,1739.27 2418.78,1745.46 2422.51,1751.75 2426.1,1758.13 2429.53,1764.61 2432.81,1771.17 2435.93,1777.82 2438.9,1784.56 2441.7,1791.38 2444.34,1798.28 2446.82,1805.26 2449.13,1812.31 2451.26,1819.44 2453.23,1826.64 2455.01,1833.9 2456.62,1841.23 2458.05,1848.63 2459.3,1856.08 2460.36,1863.6 2461.23,1871.17 2461.92,1878.79 2462.41,1886.47 2462.71,1894.19 2462.81,1901.96 1326.93,766.077 1326.83,758.307 1326.53,750.584 1326.04,742.909 1325.35,735.285 1324.48,727.716 1323.42,720.203 1322.17,712.747 1320.74,705.353 1319.13,698.021 1317.34,690.756 1315.38,683.559 1313.25,676.432 1310.94,669.378 1308.46,662.401 1305.82,655.499 1303.02,648.68 1300.05,641.941 1296.93,635.289 1293.65,628.724 1290.22,622.248 1286.63,615.865 1282.9,609.577 1279.02,603.386 1274.99,597.293 1270.83,591.304 1266.52,585.417 1262.08,579.639 1257.51,573.97 "/>
     <polygon id="_462027944" class="fil1" points="1326.93,766.077 2462.81,1901.96 2462.81,2098.19 1326.93,962.309 "/>
     <polygon id="_462034520" class="fil1" points="1492.29,969.044 2628.17,2104.93 2629.24,2106.34 2630.17,2107.84 2630.95,2109.43 2631.58,2111.09 2632.04,2112.82 2632.33,2114.6 2632.43,2116.42 2632.43,2701.63 2632.33,2703.45 2632.04,2705.23 2631.58,2706.96 2630.95,2708.63 2630.17,2710.22 2629.24,2711.72 2628.17,2713.13 2626.98,2714.44 2625.67,2715.63 2624.27,2716.7 2622.76,2717.63 2621.17,2718.41 2619.51,2719.04 2617.79,2719.5 2616.02,2719.79 2614.2,2719.88 2159.93,2719.88 1024.05,1584 1478.32,1584 1480.14,1583.9 1481.91,1583.62 1483.63,1583.16 1485.29,1582.53 1486.88,1581.75 1488.38,1580.81 1489.79,1579.75 1491.1,1578.56 1492.29,1577.25 1493.36,1575.84 1494.29,1574.33 1495.07,1572.74 1495.7,1571.08 1496.16,1569.35 1496.45,1567.57 1496.55,1565.74 1496.55,980.537 1496.45,978.714 1496.16,976.934 1495.7,975.207 1495.07,973.546 1494.29,971.958 1493.36,970.454 "/>
     <polygon id="_462013352" class="fil1" points="1024.05,1584 2159.93,2719.88 2159.88,2719.88 1024,1584 "/>
     <polygon id="_462015632" class="fil1" points="1024,1584 2159.88,2719.88 1705.55,2719.88 1703.6,2719.79 1701.73,2719.53 1699.94,2719.1 1698.24,2718.52 1696.64,2717.78 1695.14,2716.9 1693.75,2715.87 557.867,1579.99 559.257,1581.01 560.757,1581.9 562.361,1582.64 564.061,1583.22 565.851,1583.65 567.723,1583.91 569.672,1584 "/>
    </g>
    <path id="_466485008" class="fil1" d="M1237.91 552.432c54.9331,54.9166 89.0162,130.53 89.0162,213.645l0 196.232 151.396 0c9.76654,0 18.2244,8.40827 18.2244,18.228l0 585.208c0,9.82678 -8.45079,18.2551 -18.2244,18.2551l-454.276 0 -0.046063 0 -454.328 0c-10.5827,0 -18.2185,-7.67599 -18.2185,-18.2551l0 -585.208c0,-10.5732 7.65237,-18.228 18.2185,-18.228l151.402 0 0 -196.232c0,-83.1154 34.0831,-158.728 89.0174,-213.645 117.947,-117.91 309.87,-117.91 427.818,0z"/>
   </g>
  </g>
  <path class="fil2" d="M1024 -0.0011811c565.539,0 1024,458.462 1024,1024 0,565.539 -458.462,1024 -1024,1024 -565.539,0 -1024,-458.462 -1024,-1024 0,-565.539 458.462,-1024 1024,-1024z"/>
  <path class="fil3" d="M1237.91 552.432c54.9319,54.9166 89.015,130.53 89.015,213.644l-50.5229 0c0,-69.2953 -28.3406,-132.261 -74.0162,-177.923 -180.425,-172.473 -418.806,-32.7107 -430.789,177.923l-50.5241 0c0,-83.1142 34.0843,-158.727 89.0162,-213.644 117.949,-117.91 309.872,-117.91 427.82,0zm89.015 213.644l0 202.455 -50.5229 0 0 -202.455c0,-13.95 11.3102,-25.2614 25.2614,-25.2614 13.9512,0 25.2614,11.3114 25.2614,25.2614zm-555.328 0l0 202.455 -50.5241 0 0 -202.455c0,-13.95 11.3114,-25.2614 25.2614,-25.2614 13.9512,0 25.2626,11.3114 25.2626,25.2614z"/>
  <path class="fil4" d="M1024 962.309l-454.328 0c-10.5661,0 -18.2185,7.65473 -18.2185,18.228l0 585.208c0,10.5791 7.63583,18.2551 18.2185,18.2551l454.328 0 0 -145.651 0 -330.39 0 -145.65z"/>
  <path class="fil5" d="M1478.32 962.309l-453.866 0 -0.455906 0 0 145.65 0.360236 0.00236221 -0.218504 330.385 -0.141732 0.00236221 0 145.651 0.046063 0 454.276 0c9.77363,0 18.2244,-8.42835 18.2244,-18.2551l0 -585.208c0,-9.81969 -8.45788,-18.228 -18.2244,-18.228z"/>
  <path class="fil6" d="M1094.34 1137.1c-18.0047,-18.0036 -42.8752,-29.1402 -70.343,-29.1402 -27.4677,0 -52.3382,11.1366 -70.343,29.1402 -18.0036,18.0036 -29.139,42.874 -29.139,70.3418 0,27.4677 11.1354,52.3382 29.139,70.3418 12.3756,12.3756 27.9957,21.5055 45.4713,26.0044l0 109.69c0,13.7362 11.1366,24.8717 24.8717,24.8717 13.735,0 24.8717,-11.1354 24.8717,-24.8717l0 -109.69c17.4756,-4.49882 33.0957,-13.6288 45.4713,-26.0044 18.0036,-18.0036 29.139,-42.874 29.139,-70.3418 0,-27.4677 -11.1354,-52.3382 -29.139,-70.3418z"/>
 </g>
</svg>
